<mxfile host="app.diagrams.net" modified="2024-03-24T02:36:36.294Z" agent="Mozilla/5.0 (Macintosh; Intel Mac OS X 10_15_7) AppleWebKit/537.36 (KHTML, like Gecko) Chrome/123.0.0.0 Safari/537.36" version="24.1.0" etag="qrV2k0xs-8jY0w7bCoyM" type="github">
  <diagram name="Page-1" id="IRGDrFxaSJJ9DpbLaFX9">
    <mxGraphModel>
      <root>
        <mxCell id="0" />
        <mxCell id="1" parent="0" />
      </root>
    </mxGraphModel>
  </diagram>
</mxfile>
